<svg width="160" height="160" viewBox="0 0 160 160" fill="none" xmlns="http://www.w3.org/2000/svg">
<path d="M142.132 120.38C137.752 115.996 132.634 112.418 127.012 109.81C134.94 103.388 139.997 93.588 139.997 82.5983C139.997 63.2089 123.827 47.3018 104.438 47.5993C85.346 47.8968 69.9639 63.4539 69.9639 82.5983C69.9639 93.588 75.0388 103.388 82.9485 109.81C77.326 112.416 72.2077 115.994 67.829 120.38C58.2742 129.952 52.8494 142.587 52.4994 156.061C52.4947 156.248 52.5275 156.434 52.5958 156.608C52.664 156.782 52.7664 156.94 52.8969 157.074C53.0273 157.207 53.1833 157.314 53.3554 157.386C53.5276 157.459 53.7125 157.496 53.8994 157.496H63.6991C64.4516 157.496 65.0815 156.901 65.099 156.149C65.4315 145.999 69.5439 136.497 76.7712 129.287C80.4695 125.569 84.8686 122.621 89.7137 120.615C94.5588 118.608 99.7537 117.583 104.998 117.597C115.655 117.597 125.682 121.745 133.225 129.287C140.434 136.497 144.547 145.999 144.897 156.149C144.914 156.901 145.544 157.496 146.297 157.496H156.096C156.283 157.496 156.468 157.459 156.64 157.386C156.813 157.314 156.968 157.207 157.099 157.074C157.229 156.94 157.332 156.782 157.4 156.608C157.468 156.434 157.501 156.248 157.496 156.061C157.146 142.587 151.722 129.952 142.132 120.38ZM104.998 104.998C99.0131 104.998 93.3782 102.67 89.1608 98.4353C87.0443 96.3355 85.3725 93.8308 84.245 91.0708C83.1176 88.3108 82.5576 85.352 82.5985 82.3708C82.651 76.631 84.9435 71.0836 88.9509 66.9713C93.1507 62.6664 98.7681 60.2689 104.77 60.1989C110.703 60.1465 116.46 62.4564 120.695 66.6038C125.035 70.8561 127.415 76.5435 127.415 82.5983C127.415 88.5831 125.087 94.2005 120.852 98.4353C118.775 100.523 116.304 102.178 113.582 103.304C110.861 104.431 107.943 105.006 104.998 104.998ZM61.1617 87.2182C61.0042 85.6957 60.9167 84.1557 60.9167 82.5983C60.9167 79.8159 61.1792 77.1035 61.6691 74.461C61.7916 73.8311 61.4592 73.1836 60.8817 72.9211C58.5017 71.8536 56.3143 70.3837 54.4244 68.5287C52.1974 66.3694 50.4449 63.7696 49.2789 60.8951C48.1128 58.0207 47.5588 54.9347 47.6521 51.8342C47.8095 46.2169 50.067 40.8795 54.0044 36.8546C58.3267 32.4273 64.1366 30.0123 70.3139 30.0823C75.8962 30.1348 81.2861 32.2873 85.3634 36.1022C86.7459 37.3971 87.9359 38.8321 88.9333 40.372C89.2833 40.9145 89.9658 41.142 90.5608 40.932C93.6407 39.8645 96.8956 39.1121 100.238 38.7621C101.218 38.6571 101.778 37.6071 101.34 36.7321C95.6532 25.48 84.0335 17.7102 70.5939 17.5002C51.187 17.2027 35.0174 33.1097 35.0174 52.4817C35.0174 63.4714 40.0748 73.2711 48.002 79.6934C42.4372 82.2658 37.3099 85.8182 32.865 90.2631C23.2753 99.8353 17.8504 112.47 17.5004 125.962C17.4958 126.149 17.5285 126.335 17.5968 126.509C17.665 126.682 17.7674 126.841 17.8979 126.975C18.0284 127.108 18.1843 127.215 18.3564 127.287C18.5286 127.36 18.7136 127.397 18.9004 127.397H28.7176C29.4701 127.397 30.1001 126.802 30.1176 126.05C30.4501 115.9 34.5624 106.398 41.7897 99.1878C46.9346 94.043 53.2344 90.4731 60.1117 88.7406C60.7942 88.5656 61.2492 87.9181 61.1617 87.2182Z" fill="#3E60EC"/>
</svg>
