<svg width="140" height="140" viewBox="0 0 140 140" fill="none" xmlns="http://www.w3.org/2000/svg">
<path fill-rule="evenodd" clip-rule="evenodd" d="M50 0C45.3587 0 40.9075 1.84374 37.6256 5.12563C34.3437 8.40752 32.5 12.8587 32.5 17.5V30H20C14.6957 30 9.60859 32.1071 5.85786 35.8579C2.10714 39.6086 0 44.6957 0 50V120C0 125.304 2.10714 130.391 5.85786 134.142C9.60859 137.893 14.6957 140 20 140H120C125.304 140 130.391 137.893 134.142 134.142C137.893 130.391 140 125.304 140 120V50C140 44.6957 137.893 39.6086 134.142 35.8579C130.391 32.1071 125.304 30 120 30H107.5V17.5C107.5 12.8587 105.656 8.40752 102.374 5.12563C99.0925 1.84374 94.6413 0 90 0H50ZM92.5 30V17.5C92.5 16.837 92.2366 16.2011 91.7678 15.7322C91.2989 15.2634 90.663 15 90 15H50C49.337 15 48.7011 15.2634 48.2322 15.7322C47.7634 16.2011 47.5 16.837 47.5 17.5V30H92.5ZM20 45H120C121.326 45 122.598 45.5268 123.536 46.4645C124.473 47.4021 125 48.6739 125 50V60H15V50C15 48.6739 15.5268 47.4021 16.4645 46.4645C17.4021 45.5268 18.6739 45 20 45ZM15 75V120C15 121.326 15.5268 122.598 16.4645 123.536C17.4021 124.473 18.6739 125 20 125H120C121.326 125 122.598 124.473 123.536 123.536C124.473 122.598 125 121.326 125 120V75H80V90H60V75H15Z" fill="#3E60EC"/>
</svg>
