<svg width="160" height="160" viewBox="0 0 160 160" fill="none" xmlns="http://www.w3.org/2000/svg">
<path d="M93.3337 95.0137V108.947C87.2998 106.814 80.8422 106.159 74.503 107.039C68.1639 107.918 62.1283 110.306 56.9032 114.002C51.6781 117.697 47.416 122.592 44.4747 128.276C41.5335 133.96 39.9991 140.267 40.0003 146.667H26.667C26.6639 138.526 28.5247 130.492 32.1068 123.181C35.6889 115.87 40.8971 109.476 47.3325 104.489C53.7678 99.5025 61.2594 96.0553 69.233 94.4116C77.2067 92.768 85.4509 92.9783 93.3337 95.0137ZM80.0003 86.667C57.9003 86.667 40.0003 68.767 40.0003 46.667C40.0003 24.567 57.9003 6.66699 80.0003 6.66699C102.1 6.66699 120 24.567 120 46.667C120 68.767 102.1 86.667 80.0003 86.667ZM80.0003 73.3337C94.7337 73.3337 106.667 61.4003 106.667 46.667C106.667 31.9337 94.7337 20.0003 80.0003 20.0003C65.267 20.0003 53.3337 31.9337 53.3337 46.667C53.3337 61.4003 65.267 73.3337 80.0003 73.3337ZM118.62 132.76L142.187 109.194L151.62 118.62L118.62 151.62L95.047 128.047L104.48 118.62L118.62 132.76Z" fill="#3E60EC"/>
</svg>
