<svg width="1366" height="437" viewBox="0 0 1366 437" fill="none" xmlns="http://www.w3.org/2000/svg">
<path fill-rule="evenodd" clip-rule="evenodd" d="M1262.31 235.211L1157.9 -251.187L1231.29 -267L1362.31 343.398L1013.54 239.335L1091.54 539.585L626.744 427.817L644.353 354.836L987.405 437.329L929.452 214.246L609.196 118.691L942.365 -34.6326L991.474 154.402L1262.31 235.211ZM907.388 129.314L821.371 103.649L892.247 71.0318L907.388 129.314Z" fill="#3E60EC" fill-opacity="0.5"/>
<path fill-rule="evenodd" clip-rule="evenodd" d="M262.755 298.102L705.558 71.3693L739.827 138.165L184.137 422.7L194.385 58.8777L-75.4461 211.931L-87.7841 -265.954L-12.7323 -267.834L-3.62597 84.8802L196.856 -28.8366L206.267 -362.912L440.597 -80.7774L270.713 15.5834L262.755 298.102ZM273.184 -72.1309L275.711 -161.859L325.561 -101.84L273.184 -72.1309Z" fill="#3E60EC" fill-opacity="0.5"/>
</svg>
