<svg width="1365" height="414" viewBox="0 0 1365 414" fill="none" xmlns="http://www.w3.org/2000/svg">
<path fill-rule="evenodd" clip-rule="evenodd" d="M1342.31 244.211L1237.9 -242.187L1311.29 -258L1442.31 352.398L1093.54 248.335L1171.54 548.585L706.744 436.817L724.353 363.836L1067.41 446.329L1009.45 223.246L689.196 127.691L1022.37 -25.6326L1071.47 163.402L1342.31 244.211ZM987.388 138.314L901.371 112.649L972.247 80.0318L987.388 138.314Z" fill="#A2091E"/>
<path fill-rule="evenodd" clip-rule="evenodd" d="M342.755 307.102L785.558 80.3692L819.827 147.165L264.137 431.7L274.385 67.8777L4.55395 220.931L-7.78412 -256.954L67.2676 -258.834L76.374 93.8802L276.856 -19.8366L286.267 -353.912L520.597 -71.7774L350.713 24.5834L342.755 307.102ZM353.184 -63.1309L355.711 -152.859L405.561 -92.8401L353.184 -63.1309Z" fill="#A2091E"/>
</svg>
